<svg class="main-svg" xmlns="http://www.w3.org/2000/svg" xmlns:xlink="http://www.w3.org/1999/xlink" width="2400" height="1600" style="" viewBox="0 0 1200 800"><rect x="0" y="0" width="1200" height="800" style="fill: rgb(243, 243, 238); fill-opacity: 1;"/><defs id="defs-b9f5bc"><g class="clips"><clipPath id="clipb9f5bcxyplot" class="plotclip"><rect width="1040" height="572"/></clipPath><clipPath class="axesclip" id="clipb9f5bcx"><rect x="80" y="0" width="1040" height="800"/></clipPath><clipPath class="axesclip" id="clipb9f5bcy"><rect x="0" y="148" width="1200" height="572"/></clipPath><clipPath class="axesclip" id="clipb9f5bcxy"><rect x="80" y="148" width="1040" height="572"/></clipPath></g><g class="gradients"/><g class="patterns"/></defs><g class="bglayer"/><g class="layer-below"><g class="imagelayer"/><g class="shapelayer"/></g><g class="cartesianlayer"><g class="subplot xy"><g class="layer-subplot"><g class="shapelayer"/><g class="imagelayer"/></g><g class="minor-gridlayer"><g class="x"/><g class="y"/></g><g class="gridlayer"><g class="x"><path class="xgrid crisp" transform="translate(195.56,0)" d="M0,148v572" style="stroke: rgb(94, 82, 64); stroke-opacity: 0.2; stroke-width: 1px;"/><path class="xgrid crisp" transform="translate(311.11,0)" d="M0,148v572" style="stroke: rgb(94, 82, 64); stroke-opacity: 0.2; stroke-width: 1px;"/><path class="xgrid crisp" transform="translate(426.67,0)" d="M0,148v572" style="stroke: rgb(94, 82, 64); stroke-opacity: 0.2; stroke-width: 1px;"/><path class="xgrid crisp" transform="translate(657.78,0)" d="M0,148v572" style="stroke: rgb(94, 82, 64); stroke-opacity: 0.2; stroke-width: 1px;"/><path class="xgrid crisp" transform="translate(773.33,0)" d="M0,148v572" style="stroke: rgb(94, 82, 64); stroke-opacity: 0.2; stroke-width: 1px;"/><path class="xgrid crisp" transform="translate(888.89,0)" d="M0,148v572" style="stroke: rgb(94, 82, 64); stroke-opacity: 0.2; stroke-width: 1px;"/><path class="xgrid crisp" transform="translate(1004.44,0)" d="M0,148v572" style="stroke: rgb(94, 82, 64); stroke-opacity: 0.2; stroke-width: 1px;"/></g><g class="y"><path class="ygrid crisp" transform="translate(0,662.8)" d="M80,0h1040" style="stroke: rgb(94, 82, 64); stroke-opacity: 0.2; stroke-width: 1px;"/><path class="ygrid crisp" transform="translate(0,376.8)" d="M80,0h1040" style="stroke: rgb(94, 82, 64); stroke-opacity: 0.2; stroke-width: 1px;"/><path class="ygrid crisp" transform="translate(0,233.8)" d="M80,0h1040" style="stroke: rgb(94, 82, 64); stroke-opacity: 0.2; stroke-width: 1px;"/></g></g><g class="zerolinelayer"><path class="xzl zl crisp" transform="translate(542.22,0)" d="M0,148v572" style="stroke: rgb(68, 68, 68); stroke-opacity: 1; stroke-width: 1px;"/><path class="yzl zl crisp" transform="translate(0,519.8)" d="M80,0h1040" style="stroke: rgb(68, 68, 68); stroke-opacity: 1; stroke-width: 1px;"/></g><g class="layer-between"><g class="shapelayer"/><g class="imagelayer"/></g><path class="xlines-below"/><path class="ylines-below"/><g class="overlines-below"/><g class="xaxislayer-below"/><g class="yaxislayer-below"/><g class="overaxes-below"/><g class="overplot"><g class="xy" transform="translate(80,148)"><g class="scatterlayer mlayer"><g class="trace scatter tracee119b2" style="stroke-miterlimit: 2; opacity: 1;"><g class="fills" clip-path="url(#clipb9f5bcxyplot)"/><g class="errorbars"/><g class="lines"/><g class="points"><path class="point" transform="translate(115.56,437.58)" d="M4,0A4,4 0 1,1 0,-4A4,4 0 0,1 4,0Z" style="opacity: 1; stroke-width: 0px; fill: rgb(31, 184, 205); fill-opacity: 1;"/><path class="point" transform="translate(231.11,394.68)" d="M4,0A4,4 0 1,1 0,-4A4,4 0 0,1 4,0Z" style="opacity: 1; stroke-width: 0px; fill: rgb(31, 184, 205); fill-opacity: 1;"/><path class="point" transform="translate(346.67,366.08)" d="M4,0A4,4 0 1,1 0,-4A4,4 0 0,1 4,0Z" style="opacity: 1; stroke-width: 0px; fill: rgb(31, 184, 205); fill-opacity: 1;"/><path class="point" transform="translate(462.22,340.34)" d="M4,0A4,4 0 1,1 0,-4A4,4 0 0,1 4,0Z" style="opacity: 1; stroke-width: 0px; fill: rgb(31, 184, 205); fill-opacity: 1;"/><path class="point" transform="translate(577.78,291.72)" d="M4,0A4,4 0 1,1 0,-4A4,4 0 0,1 4,0Z" style="opacity: 1; stroke-width: 0px; fill: rgb(31, 184, 205); fill-opacity: 1;"/><path class="point" transform="translate(693.33,280.28)" d="M4,0A4,4 0 1,1 0,-4A4,4 0 0,1 4,0Z" style="opacity: 1; stroke-width: 0px; fill: rgb(31, 184, 205); fill-opacity: 1;"/><path class="point" transform="translate(808.89,243.1)" d="M4,0A4,4 0 1,1 0,-4A4,4 0 0,1 4,0Z" style="opacity: 1; stroke-width: 0px; fill: rgb(31, 184, 205); fill-opacity: 1;"/><path class="point" transform="translate(924.44,225.94)" d="M4,0A4,4 0 1,1 0,-4A4,4 0 0,1 4,0Z" style="opacity: 1; stroke-width: 0px; fill: rgb(31, 184, 205); fill-opacity: 1;"/></g><g class="text"/></g><g class="trace scatter tracece0431" style="stroke-miterlimit: 2; opacity: 1;"><g class="fills" clip-path="url(#clipb9f5bcxyplot)"/><g class="errorbars"/><g class="lines"><path class="js-line" d="M0,543.4L1040,28.6" clip-path="url(#clipb9f5bcxyplot)" style="vector-effect: none; fill: none; stroke: rgb(219, 69, 69); stroke-opacity: 1; stroke-dasharray: 9px, 9px; stroke-width: 2px; opacity: 1;"/></g><g class="points" clip-path="url(#clipb9f5bcxyplot)"/><g class="text" clip-path="url(#clipb9f5bcxyplot)"/></g><g class="trace scatter traceef4839" style="stroke-miterlimit: 2; opacity: 1;"><g class="fills" clip-path="url(#clipb9f5bcxyplot)"/><g class="errorbars"/><g class="lines"><path class="js-line" d="M0,494.78L1040,134.42" clip-path="url(#clipb9f5bcxyplot)" style="vector-effect: none; fill: none; stroke: rgb(210, 186, 76); stroke-opacity: 1; stroke-dasharray: 9px, 3px, 3px, 3px; stroke-width: 2px; opacity: 1;"/></g><g class="points" clip-path="url(#clipb9f5bcxyplot)"/><g class="text" clip-path="url(#clipb9f5bcxyplot)"/></g><g class="trace scatter trace5daec3" style="stroke-miterlimit: 2; opacity: 1;"><g class="fills" clip-path="url(#clipb9f5bcxyplot)"/><g class="errorbars"/><g class="lines"><path class="js-line" d="M0,461.89L1040,191.62" clip-path="url(#clipb9f5bcxyplot)" style="vector-effect: none; fill: none; stroke: rgb(93, 135, 143); stroke-opacity: 1; stroke-dasharray: 3px, 3px; stroke-width: 2px; opacity: 1;"/></g><g class="points" clip-path="url(#clipb9f5bcxyplot)"/><g class="text" clip-path="url(#clipb9f5bcxyplot)"/></g><g class="trace scatter trace16b529" style="stroke-miterlimit: 2; opacity: 1;"><g class="fills" clip-path="url(#clipb9f5bcxyplot)"/><g class="errorbars"/><g class="lines"><path class="js-line" d="M0,457.6L1040,200.2" clip-path="url(#clipb9f5bcxyplot)" style="vector-effect: none; fill: none; stroke: rgb(46, 139, 87); stroke-opacity: 1; stroke-width: 2px; opacity: 1;"/></g><g class="points" clip-path="url(#clipb9f5bcxyplot)"/><g class="text" clip-path="url(#clipb9f5bcxyplot)"/></g></g></g></g><path class="xlines-above crisp" d="" style="fill: none; stroke-width: 1px; stroke: rgb(0, 0, 0); stroke-opacity: 0;"/><path class="ylines-above crisp" d="" style="fill: none; stroke-width: 1px; stroke: rgb(0, 0, 0); stroke-opacity: 0;"/><g class="overlines-above"/><g class="xaxislayer-above"><path class="xtick ticks crisp" d="M0,721v5" transform="translate(80,0)" style="stroke: rgb(94, 82, 64); stroke-opacity: 0.2; stroke-width: 1px;"/><path class="xtick ticks crisp" d="M0,721v5" transform="translate(195.56,0)" style="stroke: rgb(94, 82, 64); stroke-opacity: 0.2; stroke-width: 1px;"/><path class="xtick ticks crisp" d="M0,721v5" transform="translate(311.11,0)" style="stroke: rgb(94, 82, 64); stroke-opacity: 0.2; stroke-width: 1px;"/><path class="xtick ticks crisp" d="M0,721v5" transform="translate(426.67,0)" style="stroke: rgb(94, 82, 64); stroke-opacity: 0.2; stroke-width: 1px;"/><path class="xtick ticks crisp" d="M0,721v5" transform="translate(542.22,0)" style="stroke: rgb(94, 82, 64); stroke-opacity: 0.2; stroke-width: 1px;"/><path class="xtick ticks crisp" d="M0,721v5" transform="translate(657.78,0)" style="stroke: rgb(94, 82, 64); stroke-opacity: 0.2; stroke-width: 1px;"/><path class="xtick ticks crisp" d="M0,721v5" transform="translate(773.33,0)" style="stroke: rgb(94, 82, 64); stroke-opacity: 0.2; stroke-width: 1px;"/><path class="xtick ticks crisp" d="M0,721v5" transform="translate(888.89,0)" style="stroke: rgb(94, 82, 64); stroke-opacity: 0.2; stroke-width: 1px;"/><path class="xtick ticks crisp" d="M0,721v5" transform="translate(1004.44,0)" style="stroke: rgb(94, 82, 64); stroke-opacity: 0.2; stroke-width: 1px;"/><path class="xtick ticks crisp" d="M0,721v5" transform="translate(1120,0)" style="stroke: rgb(94, 82, 64); stroke-opacity: 0.2; stroke-width: 1px;"/><g class="xtick"><text text-anchor="middle" x="0" y="745.2" transform="translate(80,0)" style="font-family: 'FK Grotesk Neue'; font-size: 16px; fill: rgb(98, 108, 113); fill-opacity: 1; white-space: pre; opacity: 1;">−2</text></g><g class="xtick"><text text-anchor="middle" x="0" y="745.2" style="font-family: 'FK Grotesk Neue'; font-size: 16px; fill: rgb(98, 108, 113); fill-opacity: 1; white-space: pre; opacity: 1;" transform="translate(195.56,0)">−1.5</text></g><g class="xtick"><text text-anchor="middle" x="0" y="745.2" style="font-family: 'FK Grotesk Neue'; font-size: 16px; fill: rgb(98, 108, 113); fill-opacity: 1; white-space: pre; opacity: 1;" transform="translate(311.11,0)">−1</text></g><g class="xtick"><text text-anchor="middle" x="0" y="745.2" style="font-family: 'FK Grotesk Neue'; font-size: 16px; fill: rgb(98, 108, 113); fill-opacity: 1; white-space: pre; opacity: 1;" transform="translate(426.67,0)">−0.5</text></g><g class="xtick"><text text-anchor="middle" x="0" y="745.2" style="font-family: 'FK Grotesk Neue'; font-size: 16px; fill: rgb(98, 108, 113); fill-opacity: 1; white-space: pre; opacity: 1;" transform="translate(542.22,0)">0</text></g><g class="xtick"><text text-anchor="middle" x="0" y="745.2" style="font-family: 'FK Grotesk Neue'; font-size: 16px; fill: rgb(98, 108, 113); fill-opacity: 1; white-space: pre; opacity: 1;" transform="translate(657.78,0)">0.5</text></g><g class="xtick"><text text-anchor="middle" x="0" y="745.2" style="font-family: 'FK Grotesk Neue'; font-size: 16px; fill: rgb(98, 108, 113); fill-opacity: 1; white-space: pre; opacity: 1;" transform="translate(773.33,0)">1</text></g><g class="xtick"><text text-anchor="middle" x="0" y="745.2" style="font-family: 'FK Grotesk Neue'; font-size: 16px; fill: rgb(98, 108, 113); fill-opacity: 1; white-space: pre; opacity: 1;" transform="translate(888.89,0)">1.5</text></g><g class="xtick"><text text-anchor="middle" x="0" y="745.2" style="font-family: 'FK Grotesk Neue'; font-size: 16px; fill: rgb(98, 108, 113); fill-opacity: 1; white-space: pre; opacity: 1;" transform="translate(1004.44,0)">2</text></g><g class="xtick"><text text-anchor="middle" x="0" y="745.2" style="font-family: 'FK Grotesk Neue'; font-size: 16px; fill: rgb(98, 108, 113); fill-opacity: 1; white-space: pre; opacity: 1;" transform="translate(1120,0)">2.5</text></g></g><g class="yaxislayer-above"><path class="ytick ticks crisp" d="M79,0h-5" transform="translate(0,662.8)" style="stroke: rgb(94, 82, 64); stroke-opacity: 0.2; stroke-width: 1px;"/><path class="ytick ticks crisp" d="M79,0h-5" transform="translate(0,519.8)" style="stroke: rgb(94, 82, 64); stroke-opacity: 0.2; stroke-width: 1px;"/><path class="ytick ticks crisp" d="M79,0h-5" transform="translate(0,376.8)" style="stroke: rgb(94, 82, 64); stroke-opacity: 0.2; stroke-width: 1px;"/><path class="ytick ticks crisp" d="M79,0h-5" transform="translate(0,233.8)" style="stroke: rgb(94, 82, 64); stroke-opacity: 0.2; stroke-width: 1px;"/><g class="ytick"><text text-anchor="end" x="70.8" y="5.6" transform="translate(0,662.8)" style="font-family: 'FK Grotesk Neue'; font-size: 16px; fill: rgb(98, 108, 113); fill-opacity: 1; white-space: pre; opacity: 1;">−5</text></g><g class="ytick"><text text-anchor="end" x="70.8" y="5.6" style="font-family: 'FK Grotesk Neue'; font-size: 16px; fill: rgb(98, 108, 113); fill-opacity: 1; white-space: pre; opacity: 1;" transform="translate(0,519.8)">0</text></g><g class="ytick"><text text-anchor="end" x="70.8" y="5.6" style="font-family: 'FK Grotesk Neue'; font-size: 16px; fill: rgb(98, 108, 113); fill-opacity: 1; white-space: pre; opacity: 1;" transform="translate(0,376.8)">5</text></g><g class="ytick"><text text-anchor="end" x="70.8" y="5.6" style="font-family: 'FK Grotesk Neue'; font-size: 16px; fill: rgb(98, 108, 113); fill-opacity: 1; white-space: pre; opacity: 1;" transform="translate(0,233.8)">10</text></g></g><g class="overaxes-above"/></g></g><g class="polarlayer"/><g class="smithlayer"/><g class="ternarylayer"/><g class="geolayer"/><g class="funnelarealayer"/><g class="pielayer"/><g class="iciclelayer"/><g class="treemaplayer"/><g class="sunburstlayer"/><g class="glimages"/><defs id="topdefs-b9f5bc"><g class="clips"/><clipPath id="legendb9f5bc"><rect width="989" height="34" x="0" y="0"/></clipPath></defs><g class="layer-above"><g class="imagelayer"/><g class="shapelayer"/></g><g class="infolayer"><g class="legend" pointer-events="all" transform="translate(105.5,85.39999999999998)"><rect class="bg" shape-rendering="crispEdges" width="989" height="34" x="0" y="0" style="stroke: rgb(68, 68, 68); stroke-opacity: 1; fill: rgb(243, 243, 238); fill-opacity: 1; stroke-width: 0px;"/><g class="scrollbox" transform="" clip-path="url(#legendb9f5bc)"><g class="groups"><g class="traces" transform="translate(0,16.9)" style="opacity: 1;"><text class="legendtext" text-anchor="start" x="40" y="6.24" style="font-family: 'FK Grotesk Neue'; font-size: 16px; fill: rgb(19, 52, 59); fill-opacity: 1; white-space: pre;">Data Points</text><g class="layers" style="opacity: 1;"><g class="legendfill"/><g class="legendlines"/><g class="legendsymbols"><g class="legendpoints"><path class="scatterpts" transform="translate(20,0)" d="M4,0A4,4 0 1,1 0,-4A4,4 0 0,1 4,0Z" style="opacity: 1; stroke-width: 0px; fill: rgb(31, 184, 205); fill-opacity: 1;"/></g></g></g><rect class="legendtoggle" x="0" y="-11.9" width="129.125" height="23.8" style="fill: rgb(0, 0, 0); fill-opacity: 0;"/></g><g class="traces" transform="translate(131.625,16.9)" style="opacity: 1;"><text class="legendtext" text-anchor="start" x="40" y="6.24" style="font-family: 'FK Grotesk Neue'; font-size: 16px; fill: rgb(19, 52, 59); fill-opacity: 1; white-space: pre;">Initial (MSE=12.5)</text><g class="layers" style="opacity: 1;"><g class="legendfill"/><g class="legendlines"><path class="js-line" d="M5,0h30" style="fill: none; stroke: rgb(219, 69, 69); stroke-opacity: 1; stroke-dasharray: 9px, 9px; stroke-width: 2px;"/></g><g class="legendsymbols"><g class="legendpoints"/></g></g><rect class="legendtoggle" x="0" y="-11.9" width="171.015625" height="23.8" style="fill: rgb(0, 0, 0); fill-opacity: 0;"/></g><g class="traces" transform="translate(305.140625,16.9)" style="opacity: 1;"><text class="legendtext" text-anchor="start" x="40" y="6.24" style="font-family: 'FK Grotesk Neue'; font-size: 16px; fill: rgb(19, 52, 59); fill-opacity: 1; white-space: pre;">After 5 iterations (MSE=4.2)</text><g class="layers" style="opacity: 1;"><g class="legendfill"/><g class="legendlines"><path class="js-line" d="M5,0h30" style="fill: none; stroke: rgb(210, 186, 76); stroke-opacity: 1; stroke-dasharray: 9px, 3px, 3px, 3px; stroke-width: 2px;"/></g><g class="legendsymbols"><g class="legendpoints"/></g></g><rect class="legendtoggle" x="0" y="-11.9" width="250.734375" height="23.8" style="fill: rgb(0, 0, 0); fill-opacity: 0;"/></g><g class="traces" transform="translate(558.375,16.9)" style="opacity: 1;"><text class="legendtext" text-anchor="start" x="40" y="6.24" style="font-family: 'FK Grotesk Neue'; font-size: 16px; fill: rgb(19, 52, 59); fill-opacity: 1; white-space: pre;">After 15 iterations (MSE=1.8)</text><g class="layers" style="opacity: 1;"><g class="legendfill"/><g class="legendlines"><path class="js-line" d="M5,0h30" style="fill: none; stroke: rgb(93, 135, 143); stroke-opacity: 1; stroke-dasharray: 3px, 3px; stroke-width: 2px;"/></g><g class="legendsymbols"><g class="legendpoints"/></g></g><rect class="legendtoggle" x="0" y="-11.9" width="252.609375" height="23.8" style="fill: rgb(0, 0, 0); fill-opacity: 0;"/></g><g class="traces" transform="translate(813.484375,16.9)" style="opacity: 1;"><text class="legendtext" text-anchor="start" x="40" y="6.24" style="font-family: 'FK Grotesk Neue'; font-size: 16px; fill: rgb(19, 52, 59); fill-opacity: 1; white-space: pre;">Final fit (MSE=1.1)</text><g class="layers" style="opacity: 1;"><g class="legendfill"/><g class="legendlines"><path class="js-line" d="M5,0h30" style="fill: none; stroke: rgb(46, 139, 87); stroke-opacity: 1; stroke-width: 2px;"/></g><g class="legendsymbols"><g class="legendpoints"/></g></g><rect class="legendtoggle" x="0" y="-11.9" width="172.125" height="23.8" style="fill: rgb(0, 0, 0); fill-opacity: 0;"/></g></g></g><rect class="scrollbar" rx="20" ry="3" width="0" height="0" x="0" y="0" style="fill: rgb(128, 139, 164); fill-opacity: 1;"/></g><g class="g-gtitle"><text class="gtitle" x="600" y="68" text-anchor="middle" dy="-0.3em" style="opacity: 1; font-family: 'FK Grotesk Neue'; font-size: 28px; fill: rgb(19, 52, 59); fill-opacity: 1; font-weight: 1000; white-space: pre;">SGD Linear Regression Progression</text></g><g class="g-xtitle"><text class="xtitle" x="600" y="787" text-anchor="middle" style="opacity: 1; font-family: 'FK Grotesk Neue'; font-size: 19px; fill: rgb(19, 52, 59); fill-opacity: 1; font-weight: 600; white-space: pre;">X Values</text></g><g class="g-ytitle"><text class="ytitle" transform="rotate(-90,30.771875,434)" x="30.771875" y="434" text-anchor="middle" style="opacity: 1; font-family: 'FK Grotesk Neue'; font-size: 19px; fill: rgb(19, 52, 59); fill-opacity: 1; font-weight: 600; white-space: pre;">Y Values</text></g></g></svg>