<svg class="main-svg" xmlns="http://www.w3.org/2000/svg" xmlns:xlink="http://www.w3.org/1999/xlink" width="2400" height="1600" style="" viewBox="0 0 1200 800"><rect x="0" y="0" width="1200" height="800" style="fill: rgb(243, 243, 238); fill-opacity: 1;"/><defs id="defs-9250d1"><g class="clips"><clipPath id="clip9250d1xyplot" class="plotclip"><rect width="1038" height="572"/></clipPath><clipPath class="axesclip" id="clip9250d1x"><rect x="82" y="0" width="1038" height="800"/></clipPath><clipPath class="axesclip" id="clip9250d1y"><rect x="0" y="148" width="1200" height="572"/></clipPath><clipPath class="axesclip" id="clip9250d1xy"><rect x="82" y="148" width="1038" height="572"/></clipPath></g><g class="gradients"/><g class="patterns"/></defs><g class="bglayer"/><g class="layer-below"><g class="imagelayer"/><g class="shapelayer"/></g><g class="cartesianlayer"><g class="subplot xy"><g class="layer-subplot"><g class="shapelayer"/><g class="imagelayer"/></g><g class="minor-gridlayer"><g class="x"/><g class="y"/></g><g class="gridlayer"><g class="x"><path class="xgrid crisp" transform="translate(101.58,0)" d="M0,148v572" style="stroke: rgb(94, 82, 64); stroke-opacity: 0.2; stroke-width: 1px;"/><path class="xgrid crisp" transform="translate(272.34000000000003,0)" d="M0,148v572" style="stroke: rgb(94, 82, 64); stroke-opacity: 0.2; stroke-width: 1px;"/><path class="xgrid crisp" transform="translate(443.09,0)" d="M0,148v572" style="stroke: rgb(94, 82, 64); stroke-opacity: 0.2; stroke-width: 1px;"/><path class="xgrid crisp" transform="translate(784.6,0)" d="M0,148v572" style="stroke: rgb(94, 82, 64); stroke-opacity: 0.2; stroke-width: 1px;"/><path class="xgrid crisp" transform="translate(955.36,0)" d="M0,148v572" style="stroke: rgb(94, 82, 64); stroke-opacity: 0.2; stroke-width: 1px;"/></g><g class="y"><path class="ygrid crisp" transform="translate(0,690.75)" d="M82,0h1038" style="stroke: rgb(94, 82, 64); stroke-opacity: 0.2; stroke-width: 1px;"/><path class="ygrid crisp" transform="translate(0,631.79)" d="M82,0h1038" style="stroke: rgb(94, 82, 64); stroke-opacity: 0.2; stroke-width: 1px;"/><path class="ygrid crisp" transform="translate(0,572.8399999999999)" d="M82,0h1038" style="stroke: rgb(94, 82, 64); stroke-opacity: 0.2; stroke-width: 1px;"/><path class="ygrid crisp" transform="translate(0,513.89)" d="M82,0h1038" style="stroke: rgb(94, 82, 64); stroke-opacity: 0.2; stroke-width: 1px;"/><path class="ygrid crisp" transform="translate(0,395.99)" d="M82,0h1038" style="stroke: rgb(94, 82, 64); stroke-opacity: 0.2; stroke-width: 1px;"/><path class="ygrid crisp" transform="translate(0,337.03999999999996)" d="M82,0h1038" style="stroke: rgb(94, 82, 64); stroke-opacity: 0.2; stroke-width: 1px;"/><path class="ygrid crisp" transform="translate(0,278.09000000000003)" d="M82,0h1038" style="stroke: rgb(94, 82, 64); stroke-opacity: 0.2; stroke-width: 1px;"/><path class="ygrid crisp" transform="translate(0,219.14)" d="M82,0h1038" style="stroke: rgb(94, 82, 64); stroke-opacity: 0.2; stroke-width: 1px;"/><path class="ygrid crisp" transform="translate(0,160.19)" d="M82,0h1038" style="stroke: rgb(94, 82, 64); stroke-opacity: 0.2; stroke-width: 1px;"/></g></g><g class="zerolinelayer"><path class="xzl zl crisp" transform="translate(613.85,0)" d="M0,148v572" style="stroke: rgb(68, 68, 68); stroke-opacity: 1; stroke-width: 1px;"/><path class="yzl zl crisp" transform="translate(0,454.94)" d="M82,0h1038" style="stroke: rgb(68, 68, 68); stroke-opacity: 1; stroke-width: 1px;"/></g><g class="layer-between"><g class="shapelayer"/><g class="imagelayer"/></g><path class="xlines-below"/><path class="ylines-below"/><g class="overlines-below"/><g class="xaxislayer-below"/><g class="yaxislayer-below"/><g class="overaxes-below"/><g class="overplot"><g class="xy" transform="translate(82,148)"><g class="scatterlayer mlayer"><g class="trace scatter tracede6a46" style="stroke-miterlimit: 2; opacity: 1;"><g class="fills" clip-path="url(#clip9250d1xyplot)"/><g class="errorbars"/><g class="lines"/><g class="points"><path class="point" transform="translate(145.14,250.35)" d="M4,0A4,4 0 1,1 0,-4A4,4 0 0,1 4,0Z" style="opacity: 1; stroke-width: 0px; fill: rgb(31, 184, 205); fill-opacity: 1;"/><path class="point" transform="translate(176.51,386.42)" d="M4,0A4,4 0 1,1 0,-4A4,4 0 0,1 4,0Z" style="opacity: 1; stroke-width: 0px; fill: rgb(31, 184, 205); fill-opacity: 1;"/><path class="point" transform="translate(128.14,347.26)" d="M4,0A4,4 0 1,1 0,-4A4,4 0 0,1 4,0Z" style="opacity: 1; stroke-width: 0px; fill: rgb(31, 184, 205); fill-opacity: 1;"/><path class="point" transform="translate(139.26,377.38)" d="M4,0A4,4 0 1,1 0,-4A4,4 0 0,1 4,0Z" style="opacity: 1; stroke-width: 0px; fill: rgb(31, 184, 205); fill-opacity: 1;"/><path class="point" transform="translate(123.77,230.7)" d="M4,0A4,4 0 1,1 0,-4A4,4 0 0,1 4,0Z" style="opacity: 1; stroke-width: 0px; fill: rgb(31, 184, 205); fill-opacity: 1;"/><path class="point" transform="translate(177.44,131.43)" d="M4,0A4,4 0 1,1 0,-4A4,4 0 0,1 4,0Z" style="opacity: 1; stroke-width: 0px; fill: rgb(31, 184, 205); fill-opacity: 1;"/><path class="point" transform="translate(114.51,301.31)" d="M4,0A4,4 0 1,1 0,-4A4,4 0 0,1 4,0Z" style="opacity: 1; stroke-width: 0px; fill: rgb(31, 184, 205); fill-opacity: 1;"/><path class="point" transform="translate(150.59,280.69)" d="M4,0A4,4 0 1,1 0,-4A4,4 0 0,1 4,0Z" style="opacity: 1; stroke-width: 0px; fill: rgb(31, 184, 205); fill-opacity: 1;"/><path class="point" transform="translate(133.15,438.38)" d="M4,0A4,4 0 1,1 0,-4A4,4 0 0,1 4,0Z" style="opacity: 1; stroke-width: 0px; fill: rgb(31, 184, 205); fill-opacity: 1;"/><path class="point" transform="translate(158.9,362.24)" d="M4,0A4,4 0 1,1 0,-4A4,4 0 0,1 4,0Z" style="opacity: 1; stroke-width: 0px; fill: rgb(31, 184, 205); fill-opacity: 1;"/><path class="point" transform="translate(161.92,184.2)" d="M4,0A4,4 0 1,1 0,-4A4,4 0 0,1 4,0Z" style="opacity: 1; stroke-width: 0px; fill: rgb(31, 184, 205); fill-opacity: 1;"/><path class="point" transform="translate(134.89,291.03)" d="M4,0A4,4 0 1,1 0,-4A4,4 0 0,1 4,0Z" style="opacity: 1; stroke-width: 0px; fill: rgb(31, 184, 205); fill-opacity: 1;"/><path class="point" transform="translate(153.03,392.84)" d="M4,0A4,4 0 1,1 0,-4A4,4 0 0,1 4,0Z" style="opacity: 1; stroke-width: 0px; fill: rgb(31, 184, 205); fill-opacity: 1;"/><path class="point" transform="translate(81.43,472.02)" d="M4,0A4,4 0 1,1 0,-4A4,4 0 0,1 4,0Z" style="opacity: 1; stroke-width: 0px; fill: rgb(31, 184, 205); fill-opacity: 1;"/><path class="point" transform="translate(158.47,52.23)" d="M4,0A4,4 0 1,1 0,-4A4,4 0 0,1 4,0Z" style="opacity: 1; stroke-width: 0px; fill: rgb(31, 184, 205); fill-opacity: 1;"/><path class="point" transform="translate(215.44,33.6)" d="M4,0A4,4 0 1,1 0,-4A4,4 0 0,1 4,0Z" style="opacity: 1; stroke-width: 0px; fill: rgb(31, 184, 205); fill-opacity: 1;"/><path class="point" transform="translate(155.85,108.37)" d="M4,0A4,4 0 1,1 0,-4A4,4 0 0,1 4,0Z" style="opacity: 1; stroke-width: 0px; fill: rgb(31, 184, 205); fill-opacity: 1;"/><path class="point" transform="translate(145.14,250.35)" d="M4,0A4,4 0 1,1 0,-4A4,4 0 0,1 4,0Z" style="opacity: 1; stroke-width: 0px; fill: rgb(31, 184, 205); fill-opacity: 1;"/><path class="point" transform="translate(215.44,109.04)" d="M4,0A4,4 0 1,1 0,-4A4,4 0 0,1 4,0Z" style="opacity: 1; stroke-width: 0px; fill: rgb(31, 184, 205); fill-opacity: 1;"/><path class="point" transform="translate(134.03,213.91)" d="M4,0A4,4 0 1,1 0,-4A4,4 0 0,1 4,0Z" style="opacity: 1; stroke-width: 0px; fill: rgb(31, 184, 205); fill-opacity: 1;"/><path class="point" transform="translate(191.58,231.36)" d="M4,0A4,4 0 1,1 0,-4A4,4 0 0,1 4,0Z" style="opacity: 1; stroke-width: 0px; fill: rgb(31, 184, 205); fill-opacity: 1;"/><path class="point" transform="translate(151.44,158.7)" d="M4,0A4,4 0 1,1 0,-4A4,4 0 0,1 4,0Z" style="opacity: 1; stroke-width: 0px; fill: rgb(31, 184, 205); fill-opacity: 1;"/><path class="point" transform="translate(73.7,239.2)" d="M4,0A4,4 0 1,1 0,-4A4,4 0 0,1 4,0Z" style="opacity: 1; stroke-width: 0px; fill: rgb(31, 184, 205); fill-opacity: 1;"/><path class="point" transform="translate(179.97,248.66)" d="M4,0A4,4 0 1,1 0,-4A4,4 0 0,1 4,0Z" style="opacity: 1; stroke-width: 0px; fill: rgb(31, 184, 205); fill-opacity: 1;"/><path class="point" transform="translate(155.85,269.45)" d="M4,0A4,4 0 1,1 0,-4A4,4 0 0,1 4,0Z" style="opacity: 1; stroke-width: 0px; fill: rgb(31, 184, 205); fill-opacity: 1;"/><path class="point" transform="translate(176.51,365.39)" d="M4,0A4,4 0 1,1 0,-4A4,4 0 0,1 4,0Z" style="opacity: 1; stroke-width: 0px; fill: rgb(31, 184, 205); fill-opacity: 1;"/><path class="point" transform="translate(172.77,251.02)" d="M4,0A4,4 0 1,1 0,-4A4,4 0 0,1 4,0Z" style="opacity: 1; stroke-width: 0px; fill: rgb(31, 184, 205); fill-opacity: 1;"/><path class="point" transform="translate(145.37,267.48)" d="M4,0A4,4 0 1,1 0,-4A4,4 0 0,1 4,0Z" style="opacity: 1; stroke-width: 0px; fill: rgb(31, 184, 205); fill-opacity: 1;"/><path class="point" transform="translate(145.37,282.06)" d="M4,0A4,4 0 1,1 0,-4A4,4 0 0,1 4,0Z" style="opacity: 1; stroke-width: 0px; fill: rgb(31, 184, 205); fill-opacity: 1;"/><path class="point" transform="translate(135.77,341.76)" d="M4,0A4,4 0 1,1 0,-4A4,4 0 0,1 4,0Z" style="opacity: 1; stroke-width: 0px; fill: rgb(31, 184, 205); fill-opacity: 1;"/><path class="point" transform="translate(147.98,360.28)" d="M4,0A4,4 0 1,1 0,-4A4,4 0 0,1 4,0Z" style="opacity: 1; stroke-width: 0px; fill: rgb(31, 184, 205); fill-opacity: 1;"/><path class="point" transform="translate(191.58,233.34)" d="M4,0A4,4 0 1,1 0,-4A4,4 0 0,1 4,0Z" style="opacity: 1; stroke-width: 0px; fill: rgb(31, 184, 205); fill-opacity: 1;"/><path class="point" transform="translate(114.51,171.15)" d="M4,0A4,4 0 1,1 0,-4A4,4 0 0,1 4,0Z" style="opacity: 1; stroke-width: 0px; fill: rgb(31, 184, 205); fill-opacity: 1;"/><path class="point" transform="translate(229.57,156.73)" d="M4,0A4,4 0 1,1 0,-4A4,4 0 0,1 4,0Z" style="opacity: 1; stroke-width: 0px; fill: rgb(31, 184, 205); fill-opacity: 1;"/><path class="point" transform="translate(158.9,368.86)" d="M4,0A4,4 0 1,1 0,-4A4,4 0 0,1 4,0Z" style="opacity: 1; stroke-width: 0px; fill: rgb(31, 184, 205); fill-opacity: 1;"/><path class="point" transform="translate(141.03,312.57)" d="M4,0A4,4 0 1,1 0,-4A4,4 0 0,1 4,0Z" style="opacity: 1; stroke-width: 0px; fill: rgb(31, 184, 205); fill-opacity: 1;"/><path class="point" transform="translate(203.76,263.16)" d="M4,0A4,4 0 1,1 0,-4A4,4 0 0,1 4,0Z" style="opacity: 1; stroke-width: 0px; fill: rgb(31, 184, 205); fill-opacity: 1;"/><path class="point" transform="translate(133.15,300.81)" d="M4,0A4,4 0 1,1 0,-4A4,4 0 0,1 4,0Z" style="opacity: 1; stroke-width: 0px; fill: rgb(31, 184, 205); fill-opacity: 1;"/><path class="point" transform="translate(89.04,436.33)" d="M4,0A4,4 0 1,1 0,-4A4,4 0 0,1 4,0Z" style="opacity: 1; stroke-width: 0px; fill: rgb(31, 184, 205); fill-opacity: 1;"/><path class="point" transform="translate(147.1,251.66)" d="M4,0A4,4 0 1,1 0,-4A4,4 0 0,1 4,0Z" style="opacity: 1; stroke-width: 0px; fill: rgb(31, 184, 205); fill-opacity: 1;"/><path class="point" transform="translate(159.74,273.55)" d="M4,0A4,4 0 1,1 0,-4A4,4 0 0,1 4,0Z" style="opacity: 1; stroke-width: 0px; fill: rgb(31, 184, 205); fill-opacity: 1;"/><path class="point" transform="translate(56.9,475.29)" d="M4,0A4,4 0 1,1 0,-4A4,4 0 0,1 4,0Z" style="opacity: 1; stroke-width: 0px; fill: rgb(31, 184, 205); fill-opacity: 1;"/><path class="point" transform="translate(106.69,364.01)" d="M4,0A4,4 0 1,1 0,-4A4,4 0 0,1 4,0Z" style="opacity: 1; stroke-width: 0px; fill: rgb(31, 184, 205); fill-opacity: 1;"/><path class="point" transform="translate(192.46,189.44)" d="M4,0A4,4 0 1,1 0,-4A4,4 0 0,1 4,0Z" style="opacity: 1; stroke-width: 0px; fill: rgb(31, 184, 205); fill-opacity: 1;"/><path class="point" transform="translate(174.79,144.94)" d="M4,0A4,4 0 1,1 0,-4A4,4 0 0,1 4,0Z" style="opacity: 1; stroke-width: 0px; fill: rgb(31, 184, 205); fill-opacity: 1;"/><path class="point" transform="translate(119.73,350.4)" d="M4,0A4,4 0 1,1 0,-4A4,4 0 0,1 4,0Z" style="opacity: 1; stroke-width: 0px; fill: rgb(31, 184, 205); fill-opacity: 1;"/><path class="point" transform="translate(171.72,173.77)" d="M4,0A4,4 0 1,1 0,-4A4,4 0 0,1 4,0Z" style="opacity: 1; stroke-width: 0px; fill: rgb(31, 184, 205); fill-opacity: 1;"/><path class="point" transform="translate(113.65,341.76)" d="M4,0A4,4 0 1,1 0,-4A4,4 0 0,1 4,0Z" style="opacity: 1; stroke-width: 0px; fill: rgb(31, 184, 205); fill-opacity: 1;"/><path class="point" transform="translate(203.76,223.07)" d="M4,0A4,4 0 1,1 0,-4A4,4 0 0,1 4,0Z" style="opacity: 1; stroke-width: 0px; fill: rgb(31, 184, 205); fill-opacity: 1;"/><path class="point" transform="translate(147.98,303.83)" d="M4,0A4,4 0 1,1 0,-4A4,4 0 0,1 4,0Z" style="opacity: 1; stroke-width: 0px; fill: rgb(31, 184, 205); fill-opacity: 1;"/></g><g class="text"/></g><g class="trace scatter trace63ff14" style="stroke-miterlimit: 2; opacity: 1;"><g class="fills" clip-path="url(#clip9250d1xyplot)"/><g class="errorbars"/><g class="lines"/><g class="points"><path class="point" transform="translate(751.2,296.65)" d="M4,0A4,4 0 1,1 0,-4A4,4 0 0,1 4,0Z" style="opacity: 1; stroke-width: 0px; fill: rgb(219, 69, 69); fill-opacity: 1;"/><path class="point" transform="translate(600.31,220.45)" d="M4,0A4,4 0 1,1 0,-4A4,4 0 0,1 4,0Z" style="opacity: 1; stroke-width: 0px; fill: rgb(219, 69, 69); fill-opacity: 1;"/><path class="point" transform="translate(795.02,311.92)" d="M4,0A4,4 0 1,1 0,-4A4,4 0 0,1 4,0Z" style="opacity: 1; stroke-width: 0px; fill: rgb(219, 69, 69); fill-opacity: 1;"/><path class="point" transform="translate(508.94,453.92)" d="M4,0A4,4 0 1,1 0,-4A4,4 0 0,1 4,0Z" style="opacity: 1; stroke-width: 0px; fill: rgb(219, 69, 69); fill-opacity: 1;"/><path class="point" transform="translate(731.62,228.71)" d="M4,0A4,4 0 1,1 0,-4A4,4 0 0,1 4,0Z" style="opacity: 1; stroke-width: 0px; fill: rgb(219, 69, 69); fill-opacity: 1;"/><path class="point" transform="translate(631.19,282.72)" d="M4,0A4,4 0 1,1 0,-4A4,4 0 0,1 4,0Z" style="opacity: 1; stroke-width: 0px; fill: rgb(219, 69, 69); fill-opacity: 1;"/><path class="point" transform="translate(670.81,205.65)" d="M4,0A4,4 0 1,1 0,-4A4,4 0 0,1 4,0Z" style="opacity: 1; stroke-width: 0px; fill: rgb(219, 69, 69); fill-opacity: 1;"/><path class="point" transform="translate(362.86,477.26)" d="M4,0A4,4 0 1,1 0,-4A4,4 0 0,1 4,0Z" style="opacity: 1; stroke-width: 0px; fill: rgb(219, 69, 69); fill-opacity: 1;"/><path class="point" transform="translate(710.27,269.71)" d="M4,0A4,4 0 1,1 0,-4A4,4 0 0,1 4,0Z" style="opacity: 1; stroke-width: 0px; fill: rgb(219, 69, 69); fill-opacity: 1;"/><path class="point" transform="translate(508.94,284.68)" d="M4,0A4,4 0 1,1 0,-4A4,4 0 0,1 4,0Z" style="opacity: 1; stroke-width: 0px; fill: rgb(219, 69, 69); fill-opacity: 1;"/><path class="point" transform="translate(399.5,511.43)" d="M4,0A4,4 0 1,1 0,-4A4,4 0 0,1 4,0Z" style="opacity: 1; stroke-width: 0px; fill: rgb(219, 69, 69); fill-opacity: 1;"/><path class="point" transform="translate(625.1,256.89)" d="M4,0A4,4 0 1,1 0,-4A4,4 0 0,1 4,0Z" style="opacity: 1; stroke-width: 0px; fill: rgb(219, 69, 69); fill-opacity: 1;"/><path class="point" transform="translate(502.9,467.68)" d="M4,0A4,4 0 1,1 0,-4A4,4 0 0,1 4,0Z" style="opacity: 1; stroke-width: 0px; fill: rgb(219, 69, 69); fill-opacity: 1;"/><path class="point" transform="translate(699.95,289.4)" d="M4,0A4,4 0 1,1 0,-4A4,4 0 0,1 4,0Z" style="opacity: 1; stroke-width: 0px; fill: rgb(219, 69, 69); fill-opacity: 1;"/><path class="point" transform="translate(570.88,299.4)" d="M4,0A4,4 0 1,1 0,-4A4,4 0 0,1 4,0Z" style="opacity: 1; stroke-width: 0px; fill: rgb(219, 69, 69); fill-opacity: 1;"/><path class="point" transform="translate(725.53,254.27)" d="M4,0A4,4 0 1,1 0,-4A4,4 0 0,1 4,0Z" style="opacity: 1; stroke-width: 0px; fill: rgb(219, 69, 69); fill-opacity: 1;"/><path class="point" transform="translate(645.15,280.76)" d="M4,0A4,4 0 1,1 0,-4A4,4 0 0,1 4,0Z" style="opacity: 1; stroke-width: 0px; fill: rgb(219, 69, 69); fill-opacity: 1;"/><path class="point" transform="translate(551.81,419.73)" d="M4,0A4,4 0 1,1 0,-4A4,4 0 0,1 4,0Z" style="opacity: 1; stroke-width: 0px; fill: rgb(219, 69, 69); fill-opacity: 1;"/><path class="point" transform="translate(540.59,436.9)" d="M4,0A4,4 0 1,1 0,-4A4,4 0 0,1 4,0Z" style="opacity: 1; stroke-width: 0px; fill: rgb(219, 69, 69); fill-opacity: 1;"/><path class="point" transform="translate(537.67,494.29)" d="M4,0A4,4 0 1,1 0,-4A4,4 0 0,1 4,0Z" style="opacity: 1; stroke-width: 0px; fill: rgb(219, 69, 69); fill-opacity: 1;"/><path class="point" transform="translate(739.07,127.36)" d="M4,0A4,4 0 1,1 0,-4A4,4 0 0,1 4,0Z" style="opacity: 1; stroke-width: 0px; fill: rgb(219, 69, 69); fill-opacity: 1;"/><path class="point" transform="translate(566.56,342.42)" d="M4,0A4,4 0 1,1 0,-4A4,4 0 0,1 4,0Z" style="opacity: 1; stroke-width: 0px; fill: rgb(219, 69, 69); fill-opacity: 1;"/><path class="point" transform="translate(739.07,383.14)" d="M4,0A4,4 0 1,1 0,-4A4,4 0 0,1 4,0Z" style="opacity: 1; stroke-width: 0px; fill: rgb(219, 69, 69); fill-opacity: 1;"/><path class="point" transform="translate(674.28,349.42)" d="M4,0A4,4 0 1,1 0,-4A4,4 0 0,1 4,0Z" style="opacity: 1; stroke-width: 0px; fill: rgb(219, 69, 69); fill-opacity: 1;"/><path class="point" transform="translate(686.06,309.96)" d="M4,0A4,4 0 1,1 0,-4A4,4 0 0,1 4,0Z" style="opacity: 1; stroke-width: 0px; fill: rgb(219, 69, 69); fill-opacity: 1;"/><path class="point" transform="translate(730.73,294.29)" d="M4,0A4,4 0 1,1 0,-4A4,4 0 0,1 4,0Z" style="opacity: 1; stroke-width: 0px; fill: rgb(219, 69, 69); fill-opacity: 1;"/><path class="point" transform="translate(786.37,325.27)" d="M4,0A4,4 0 1,1 0,-4A4,4 0 0,1 4,0Z" style="opacity: 1; stroke-width: 0px; fill: rgb(219, 69, 69); fill-opacity: 1;"/><path class="point" transform="translate(810.56,273.55)" d="M4,0A4,4 0 1,1 0,-4A4,4 0 0,1 4,0Z" style="opacity: 1; stroke-width: 0px; fill: rgb(219, 69, 69); fill-opacity: 1;"/><path class="point" transform="translate(650.34,228.71)" d="M4,0A4,4 0 1,1 0,-4A4,4 0 0,1 4,0Z" style="opacity: 1; stroke-width: 0px; fill: rgb(219, 69, 69); fill-opacity: 1;"/><path class="point" transform="translate(508.94,444.1)" d="M4,0A4,4 0 1,1 0,-4A4,4 0 0,1 4,0Z" style="opacity: 1; stroke-width: 0px; fill: rgb(219, 69, 69); fill-opacity: 1;"/><path class="point" transform="translate(470.34,470.95)" d="M4,0A4,4 0 1,1 0,-4A4,4 0 0,1 4,0Z" style="opacity: 1; stroke-width: 0px; fill: rgb(219, 69, 69); fill-opacity: 1;"/><path class="point" transform="translate(518.8,483.4)" d="M4,0A4,4 0 1,1 0,-4A4,4 0 0,1 4,0Z" style="opacity: 1; stroke-width: 0px; fill: rgb(219, 69, 69); fill-opacity: 1;"/><path class="point" transform="translate(554.74,393.88)" d="M4,0A4,4 0 1,1 0,-4A4,4 0 0,1 4,0Z" style="opacity: 1; stroke-width: 0px; fill: rgb(219, 69, 69); fill-opacity: 1;"/><path class="point" transform="translate(634.12,210.88)" d="M4,0A4,4 0 1,1 0,-4A4,4 0 0,1 4,0Z" style="opacity: 1; stroke-width: 0px; fill: rgb(219, 69, 69); fill-opacity: 1;"/><path class="point" transform="translate(585.04,280.76)" d="M4,0A4,4 0 1,1 0,-4A4,4 0 0,1 4,0Z" style="opacity: 1; stroke-width: 0px; fill: rgb(219, 69, 69); fill-opacity: 1;"/><path class="point" transform="translate(573.81,164.59)" d="M4,0A4,4 0 1,1 0,-4A4,4 0 0,1 4,0Z" style="opacity: 1; stroke-width: 0px; fill: rgb(219, 69, 69); fill-opacity: 1;"/><path class="point" transform="translate(729.89,217.18)" d="M4,0A4,4 0 1,1 0,-4A4,4 0 0,1 4,0Z" style="opacity: 1; stroke-width: 0px; fill: rgb(219, 69, 69); fill-opacity: 1;"/><path class="point" transform="translate(571.74,397.15)" d="M4,0A4,4 0 1,1 0,-4A4,4 0 0,1 4,0Z" style="opacity: 1; stroke-width: 0px; fill: rgb(219, 69, 69); fill-opacity: 1;"/><path class="point" transform="translate(608.42,294.29)" d="M4,0A4,4 0 1,1 0,-4A4,4 0 0,1 4,0Z" style="opacity: 1; stroke-width: 0px; fill: rgb(219, 69, 69); fill-opacity: 1;"/><path class="point" transform="translate(508.94,424.31)" d="M4,0A4,4 0 1,1 0,-4A4,4 0 0,1 4,0Z" style="opacity: 1; stroke-width: 0px; fill: rgb(219, 69, 69); fill-opacity: 1;"/><path class="point" transform="translate(537.67,538.4)" d="M4,0A4,4 0 1,1 0,-4A4,4 0 0,1 4,0Z" style="opacity: 1; stroke-width: 0px; fill: rgb(219, 69, 69); fill-opacity: 1;"/><path class="point" transform="translate(686.06,280.09)" d="M4,0A4,4 0 1,1 0,-4A4,4 0 0,1 4,0Z" style="opacity: 1; stroke-width: 0px; fill: rgb(219, 69, 69); fill-opacity: 1;"/><path class="point" transform="translate(540.59,419.73)" d="M4,0A4,4 0 1,1 0,-4A4,4 0 0,1 4,0Z" style="opacity: 1; stroke-width: 0px; fill: rgb(219, 69, 69); fill-opacity: 1;"/><path class="point" transform="translate(435.31,506.07)" d="M4,0A4,4 0 1,1 0,-4A4,4 0 0,1 4,0Z" style="opacity: 1; stroke-width: 0px; fill: rgb(219, 69, 69); fill-opacity: 1;"/><path class="point" transform="translate(585.04,316.24)" d="M4,0A4,4 0 1,1 0,-4A4,4 0 0,1 4,0Z" style="opacity: 1; stroke-width: 0px; fill: rgb(219, 69, 69); fill-opacity: 1;"/><path class="point" transform="translate(608.45,332.6)" d="M4,0A4,4 0 1,1 0,-4A4,4 0 0,1 4,0Z" style="opacity: 1; stroke-width: 0px; fill: rgb(219, 69, 69); fill-opacity: 1;"/><path class="point" transform="translate(624.24,299.4)" d="M4,0A4,4 0 1,1 0,-4A4,4 0 0,1 4,0Z" style="opacity: 1; stroke-width: 0px; fill: rgb(219, 69, 69); fill-opacity: 1;"/><path class="point" transform="translate(657.33,350.4)" d="M4,0A4,4 0 1,1 0,-4A4,4 0 0,1 4,0Z" style="opacity: 1; stroke-width: 0px; fill: rgb(219, 69, 69); fill-opacity: 1;"/><path class="point" transform="translate(361.99,496.25)" d="M4,0A4,4 0 1,1 0,-4A4,4 0 0,1 4,0Z" style="opacity: 1; stroke-width: 0px; fill: rgb(219, 69, 69); fill-opacity: 1;"/><path class="point" transform="translate(608.42,320.56)" d="M4,0A4,4 0 1,1 0,-4A4,4 0 0,1 4,0Z" style="opacity: 1; stroke-width: 0px; fill: rgb(219, 69, 69); fill-opacity: 1;"/></g><g class="text"/></g><g class="trace scatter tracebb765c" style="stroke-miterlimit: 2; opacity: 1;"><g class="fills" clip-path="url(#clip9250d1xyplot)"/><g class="errorbars"/><g class="lines"/><g class="points"><path class="point" transform="translate(846.6,290.58)" d="M4,0A4,4 0 1,1 0,-4A4,4 0 0,1 4,0Z" style="opacity: 1; stroke-width: 0px; fill: rgb(46, 139, 87); fill-opacity: 1;"/><path class="point" transform="translate(632.04,371.48)" d="M4,0A4,4 0 1,1 0,-4A4,4 0 0,1 4,0Z" style="opacity: 1; stroke-width: 0px; fill: rgb(46, 139, 87); fill-opacity: 1;"/><path class="point" transform="translate(901.38,320.56)" d="M4,0A4,4 0 1,1 0,-4A4,4 0 0,1 4,0Z" style="opacity: 1; stroke-width: 0px; fill: rgb(46, 139, 87); fill-opacity: 1;"/><path class="point" transform="translate(732.48,370.82)" d="M4,0A4,4 0 1,1 0,-4A4,4 0 0,1 4,0Z" style="opacity: 1; stroke-width: 0px; fill: rgb(46, 139, 87); fill-opacity: 1;"/><path class="point" transform="translate(844.02,321.94)" d="M4,0A4,4 0 1,1 0,-4A4,4 0 0,1 4,0Z" style="opacity: 1; stroke-width: 0px; fill: rgb(46, 139, 87); fill-opacity: 1;"/><path class="point" transform="translate(981.1,330.45)" d="M4,0A4,4 0 1,1 0,-4A4,4 0 0,1 4,0Z" style="opacity: 1; stroke-width: 0px; fill: rgb(46, 139, 87); fill-opacity: 1;"/><path class="point" transform="translate(499.98,508.16)" d="M4,0A4,4 0 1,1 0,-4A4,4 0 0,1 4,0Z" style="opacity: 1; stroke-width: 0px; fill: rgb(46, 139, 87); fill-opacity: 1;"/><path class="point" transform="translate(908.91,296.65)" d="M4,0A4,4 0 1,1 0,-4A4,4 0 0,1 4,0Z" style="opacity: 1; stroke-width: 0px; fill: rgb(46, 139, 87); fill-opacity: 1;"/><path class="point" transform="translate(835.98,371.7)" d="M4,0A4,4 0 1,1 0,-4A4,4 0 0,1 4,0Z" style="opacity: 1; stroke-width: 0px; fill: rgb(46, 139, 87); fill-opacity: 1;"/><path class="point" transform="translate(924.54,201.39)" d="M4,0A4,4 0 1,1 0,-4A4,4 0 0,1 4,0Z" style="opacity: 1; stroke-width: 0px; fill: rgb(46, 139, 87); fill-opacity: 1;"/><path class="point" transform="translate(796.75,287.44)" d="M4,0A4,4 0 1,1 0,-4A4,4 0 0,1 4,0Z" style="opacity: 1; stroke-width: 0px; fill: rgb(46, 139, 87); fill-opacity: 1;"/><path class="point" transform="translate(778.56,368.86)" d="M4,0A4,4 0 1,1 0,-4A4,4 0 0,1 4,0Z" style="opacity: 1; stroke-width: 0px; fill: rgb(46, 139, 87); fill-opacity: 1;"/><path class="point" transform="translate(863.11,306.61)" d="M4,0A4,4 0 1,1 0,-4A4,4 0 0,1 4,0Z" style="opacity: 1; stroke-width: 0px; fill: rgb(46, 139, 87); fill-opacity: 1;"/><path class="point" transform="translate(676.03,464.4)" d="M4,0A4,4 0 1,1 0,-4A4,4 0 0,1 4,0Z" style="opacity: 1; stroke-width: 0px; fill: rgb(46, 139, 87); fill-opacity: 1;"/><path class="point" transform="translate(697.37,359.62)" d="M4,0A4,4 0 1,1 0,-4A4,4 0 0,1 4,0Z" style="opacity: 1; stroke-width: 0px; fill: rgb(46, 139, 87); fill-opacity: 1;"/><path class="point" transform="translate(795.02,201.38)" d="M4,0A4,4 0 1,1 0,-4A4,4 0 0,1 4,0Z" style="opacity: 1; stroke-width: 0px; fill: rgb(46, 139, 87); fill-opacity: 1;"/><path class="point" transform="translate(835.98,318.2)" d="M4,0A4,4 0 1,1 0,-4A4,4 0 0,1 4,0Z" style="opacity: 1; stroke-width: 0px; fill: rgb(46, 139, 87); fill-opacity: 1;"/><path class="point" transform="translate(968.97,140.47)" d="M4,0A4,4 0 1,1 0,-4A4,4 0 0,1 4,0Z" style="opacity: 1; stroke-width: 0px; fill: rgb(46, 139, 87); fill-opacity: 1;"/><path class="point" transform="translate(953.48,381.83)" d="M4,0A4,4 0 1,1 0,-4A4,4 0 0,1 4,0Z" style="opacity: 1; stroke-width: 0px; fill: rgb(46, 139, 87); fill-opacity: 1;"/><path class="point" transform="translate(570.88,518.64)" d="M4,0A4,4 0 1,1 0,-4A4,4 0 0,1 4,0Z" style="opacity: 1; stroke-width: 0px; fill: rgb(46, 139, 87); fill-opacity: 1;"/><path class="point" transform="translate(907.47,179.61)" d="M4,0A4,4 0 1,1 0,-4A4,4 0 0,1 4,0Z" style="opacity: 1; stroke-width: 0px; fill: rgb(46, 139, 87); fill-opacity: 1;"/><path class="point" transform="translate(645.15,475.29)" d="M4,0A4,4 0 1,1 0,-4A4,4 0 0,1 4,0Z" style="opacity: 1; stroke-width: 0px; fill: rgb(46, 139, 87); fill-opacity: 1;"/><path class="point" transform="translate(976.77,367.55)" d="M4,0A4,4 0 1,1 0,-4A4,4 0 0,1 4,0Z" style="opacity: 1; stroke-width: 0px; fill: rgb(46, 139, 87); fill-opacity: 1;"/><path class="point" transform="translate(710.27,443.45)" d="M4,0A4,4 0 1,1 0,-4A4,4 0 0,1 4,0Z" style="opacity: 1; stroke-width: 0px; fill: rgb(46, 139, 87); fill-opacity: 1;"/><path class="point" transform="translate(850.09,188.79)" d="M4,0A4,4 0 1,1 0,-4A4,4 0 0,1 4,0Z" style="opacity: 1; stroke-width: 0px; fill: rgb(46, 139, 87); fill-opacity: 1;"/><path class="point" transform="translate(907.78,251.02)" d="M4,0A4,4 0 1,1 0,-4A4,4 0 0,1 4,0Z" style="opacity: 1; stroke-width: 0px; fill: rgb(46, 139, 87); fill-opacity: 1;"/><path class="point" transform="translate(662.53,409.9)" d="M4,0A4,4 0 1,1 0,-4A4,4 0 0,1 4,0Z" style="opacity: 1; stroke-width: 0px; fill: rgb(46, 139, 87); fill-opacity: 1;"/><path class="point" transform="translate(684.69,385.76)" d="M4,0A4,4 0 1,1 0,-4A4,4 0 0,1 4,0Z" style="opacity: 1; stroke-width: 0px; fill: rgb(46, 139, 87); fill-opacity: 1;"/><path class="point" transform="translate(786.37,355.69)" d="M4,0A4,4 0 1,1 0,-4A4,4 0 0,1 4,0Z" style="opacity: 1; stroke-width: 0px; fill: rgb(46, 139, 87); fill-opacity: 1;"/><path class="point" transform="translate(900.09,328.48)" d="M4,0A4,4 0 1,1 0,-4A4,4 0 0,1 4,0Z" style="opacity: 1; stroke-width: 0px; fill: rgb(46, 139, 87); fill-opacity: 1;"/><path class="point" transform="translate(917.52,383.8)" d="M4,0A4,4 0 1,1 0,-4A4,4 0 0,1 4,0Z" style="opacity: 1; stroke-width: 0px; fill: rgb(46, 139, 87); fill-opacity: 1;"/><path class="point" transform="translate(969.9,217.18)" d="M4,0A4,4 0 1,1 0,-4A4,4 0 0,1 4,0Z" style="opacity: 1; stroke-width: 0px; fill: rgb(46, 139, 87); fill-opacity: 1;"/><path class="point" transform="translate(795.02,310.74)" d="M4,0A4,4 0 1,1 0,-4A4,4 0 0,1 4,0Z" style="opacity: 1; stroke-width: 0px; fill: rgb(46, 139, 87); fill-opacity: 1;"/><path class="point" transform="translate(713.73,427.73)" d="M4,0A4,4 0 1,1 0,-4A4,4 0 0,1 4,0Z" style="opacity: 1; stroke-width: 0px; fill: rgb(46, 139, 87); fill-opacity: 1;"/><path class="point" transform="translate(681.23,457.85)" d="M4,0A4,4 0 1,1 0,-4A4,4 0 0,1 4,0Z" style="opacity: 1; stroke-width: 0px; fill: rgb(46, 139, 87); fill-opacity: 1;"/><path class="point" transform="translate(950.88,210.88)" d="M4,0A4,4 0 1,1 0,-4A4,4 0 0,1 4,0Z" style="opacity: 1; stroke-width: 0px; fill: rgb(46, 139, 87); fill-opacity: 1;"/><path class="point" transform="translate(814.02,133.91)" d="M4,0A4,4 0 1,1 0,-4A4,4 0 0,1 4,0Z" style="opacity: 1; stroke-width: 0px; fill: rgb(46, 139, 87); fill-opacity: 1;"/><path class="point" transform="translate(765.08,301.37)" d="M4,0A4,4 0 1,1 0,-4A4,4 0 0,1 4,0Z" style="opacity: 1; stroke-width: 0px; fill: rgb(46, 139, 87); fill-opacity: 1;"/><path class="point" transform="translate(673.42,415.79)" d="M4,0A4,4 0 1,1 0,-4A4,4 0 0,1 4,0Z" style="opacity: 1; stroke-width: 0px; fill: rgb(46, 139, 87); fill-opacity: 1;"/><path class="point" transform="translate(891.24,192.2)" d="M4,0A4,4 0 1,1 0,-4A4,4 0 0,1 4,0Z" style="opacity: 1; stroke-width: 0px; fill: rgb(46, 139, 87); fill-opacity: 1;"/><path class="point" transform="translate(853.56,142.32)" d="M4,0A4,4 0 1,1 0,-4A4,4 0 0,1 4,0Z" style="opacity: 1; stroke-width: 0px; fill: rgb(46, 139, 87); fill-opacity: 1;"/><path class="point" transform="translate(869.16,148.19)" d="M4,0A4,4 0 1,1 0,-4A4,4 0 0,1 4,0Z" style="opacity: 1; stroke-width: 0px; fill: rgb(46, 139, 87); fill-opacity: 1;"/><path class="point" transform="translate(629.46,450)" d="M4,0A4,4 0 1,1 0,-4A4,4 0 0,1 4,0Z" style="opacity: 1; stroke-width: 0px; fill: rgb(46, 139, 87); fill-opacity: 1;"/><path class="point" transform="translate(872.6,93.84)" d="M4,0A4,4 0 1,1 0,-4A4,4 0 0,1 4,0Z" style="opacity: 1; stroke-width: 0px; fill: rgb(46, 139, 87); fill-opacity: 1;"/><path class="point" transform="translate(862.24,130.64)" d="M4,0A4,4 0 1,1 0,-4A4,4 0 0,1 4,0Z" style="opacity: 1; stroke-width: 0px; fill: rgb(46, 139, 87); fill-opacity: 1;"/><path class="point" transform="translate(812.29,166.57)" d="M4,0A4,4 0 1,1 0,-4A4,4 0 0,1 4,0Z" style="opacity: 1; stroke-width: 0px; fill: rgb(46, 139, 87); fill-opacity: 1;"/><path class="point" transform="translate(718.11,417.77)" d="M4,0A4,4 0 1,1 0,-4A4,4 0 0,1 4,0Z" style="opacity: 1; stroke-width: 0px; fill: rgb(46, 139, 87); fill-opacity: 1;"/><path class="point" transform="translate(796.75,334.56)" d="M4,0A4,4 0 1,1 0,-4A4,4 0 0,1 4,0Z" style="opacity: 1; stroke-width: 0px; fill: rgb(46, 139, 87); fill-opacity: 1;"/><path class="point" transform="translate(775.95,128.02)" d="M4,0A4,4 0 1,1 0,-4A4,4 0 0,1 4,0Z" style="opacity: 1; stroke-width: 0px; fill: rgb(46, 139, 87); fill-opacity: 1;"/><path class="point" transform="translate(681.23,440.83)" d="M4,0A4,4 0 1,1 0,-4A4,4 0 0,1 4,0Z" style="opacity: 1; stroke-width: 0px; fill: rgb(46, 139, 87); fill-opacity: 1;"/></g><g class="text"/></g></g></g></g><path class="xlines-above crisp" d="" style="fill: none; stroke-width: 1px; stroke: rgb(0, 0, 0); stroke-opacity: 0;"/><path class="ylines-above crisp" d="" style="fill: none; stroke-width: 1px; stroke: rgb(0, 0, 0); stroke-opacity: 0;"/><g class="overlines-above"/><g class="xaxislayer-above"><path class="xtick ticks crisp" d="M0,721v5" transform="translate(101.58,0)" style="stroke: rgb(94, 82, 64); stroke-opacity: 0.2; stroke-width: 1px;"/><path class="xtick ticks crisp" d="M0,721v5" transform="translate(272.34000000000003,0)" style="stroke: rgb(94, 82, 64); stroke-opacity: 0.2; stroke-width: 1px;"/><path class="xtick ticks crisp" d="M0,721v5" transform="translate(443.09,0)" style="stroke: rgb(94, 82, 64); stroke-opacity: 0.2; stroke-width: 1px;"/><path class="xtick ticks crisp" d="M0,721v5" transform="translate(613.85,0)" style="stroke: rgb(94, 82, 64); stroke-opacity: 0.2; stroke-width: 1px;"/><path class="xtick ticks crisp" d="M0,721v5" transform="translate(784.6,0)" style="stroke: rgb(94, 82, 64); stroke-opacity: 0.2; stroke-width: 1px;"/><path class="xtick ticks crisp" d="M0,721v5" transform="translate(955.36,0)" style="stroke: rgb(94, 82, 64); stroke-opacity: 0.2; stroke-width: 1px;"/><g class="xtick"><text text-anchor="middle" x="0" y="745.2" transform="translate(101.58,0)" style="font-family: 'FK Grotesk Neue'; font-size: 16px; fill: rgb(98, 108, 113); fill-opacity: 1; white-space: pre; opacity: 1;">−3</text></g><g class="xtick"><text text-anchor="middle" x="0" y="745.2" style="font-family: 'FK Grotesk Neue'; font-size: 16px; fill: rgb(98, 108, 113); fill-opacity: 1; white-space: pre; opacity: 1;" transform="translate(272.34000000000003,0)">−2</text></g><g class="xtick"><text text-anchor="middle" x="0" y="745.2" style="font-family: 'FK Grotesk Neue'; font-size: 16px; fill: rgb(98, 108, 113); fill-opacity: 1; white-space: pre; opacity: 1;" transform="translate(443.09,0)">−1</text></g><g class="xtick"><text text-anchor="middle" x="0" y="745.2" style="font-family: 'FK Grotesk Neue'; font-size: 16px; fill: rgb(98, 108, 113); fill-opacity: 1; white-space: pre; opacity: 1;" transform="translate(613.85,0)">0</text></g><g class="xtick"><text text-anchor="middle" x="0" y="745.2" style="font-family: 'FK Grotesk Neue'; font-size: 16px; fill: rgb(98, 108, 113); fill-opacity: 1; white-space: pre; opacity: 1;" transform="translate(784.6,0)">1</text></g><g class="xtick"><text text-anchor="middle" x="0" y="745.2" style="font-family: 'FK Grotesk Neue'; font-size: 16px; fill: rgb(98, 108, 113); fill-opacity: 1; white-space: pre; opacity: 1;" transform="translate(955.36,0)">2</text></g></g><g class="yaxislayer-above"><path class="ytick ticks crisp" d="M81,0h-5" transform="translate(0,690.75)" style="stroke: rgb(94, 82, 64); stroke-opacity: 0.2; stroke-width: 1px;"/><path class="ytick ticks crisp" d="M81,0h-5" transform="translate(0,631.79)" style="stroke: rgb(94, 82, 64); stroke-opacity: 0.2; stroke-width: 1px;"/><path class="ytick ticks crisp" d="M81,0h-5" transform="translate(0,572.8399999999999)" style="stroke: rgb(94, 82, 64); stroke-opacity: 0.2; stroke-width: 1px;"/><path class="ytick ticks crisp" d="M81,0h-5" transform="translate(0,513.89)" style="stroke: rgb(94, 82, 64); stroke-opacity: 0.2; stroke-width: 1px;"/><path class="ytick ticks crisp" d="M81,0h-5" transform="translate(0,454.94)" style="stroke: rgb(94, 82, 64); stroke-opacity: 0.2; stroke-width: 1px;"/><path class="ytick ticks crisp" d="M81,0h-5" transform="translate(0,395.99)" style="stroke: rgb(94, 82, 64); stroke-opacity: 0.2; stroke-width: 1px;"/><path class="ytick ticks crisp" d="M81,0h-5" transform="translate(0,337.03999999999996)" style="stroke: rgb(94, 82, 64); stroke-opacity: 0.2; stroke-width: 1px;"/><path class="ytick ticks crisp" d="M81,0h-5" transform="translate(0,278.09000000000003)" style="stroke: rgb(94, 82, 64); stroke-opacity: 0.2; stroke-width: 1px;"/><path class="ytick ticks crisp" d="M81,0h-5" transform="translate(0,219.14)" style="stroke: rgb(94, 82, 64); stroke-opacity: 0.2; stroke-width: 1px;"/><path class="ytick ticks crisp" d="M81,0h-5" transform="translate(0,160.19)" style="stroke: rgb(94, 82, 64); stroke-opacity: 0.2; stroke-width: 1px;"/><g class="ytick"><text text-anchor="end" x="72.8" y="5.6" transform="translate(0,690.75)" style="font-family: 'FK Grotesk Neue'; font-size: 16px; fill: rgb(98, 108, 113); fill-opacity: 1; white-space: pre; opacity: 1;">−2</text></g><g class="ytick"><text text-anchor="end" x="72.8" y="5.6" style="font-family: 'FK Grotesk Neue'; font-size: 16px; fill: rgb(98, 108, 113); fill-opacity: 1; white-space: pre; opacity: 1;" transform="translate(0,631.79)">−1.5</text></g><g class="ytick"><text text-anchor="end" x="72.8" y="5.6" style="font-family: 'FK Grotesk Neue'; font-size: 16px; fill: rgb(98, 108, 113); fill-opacity: 1; white-space: pre; opacity: 1;" transform="translate(0,572.8399999999999)">−1</text></g><g class="ytick"><text text-anchor="end" x="72.8" y="5.6" style="font-family: 'FK Grotesk Neue'; font-size: 16px; fill: rgb(98, 108, 113); fill-opacity: 1; white-space: pre; opacity: 1;" transform="translate(0,513.89)">−0.5</text></g><g class="ytick"><text text-anchor="end" x="72.8" y="5.6" style="font-family: 'FK Grotesk Neue'; font-size: 16px; fill: rgb(98, 108, 113); fill-opacity: 1; white-space: pre; opacity: 1;" transform="translate(0,454.94)">0</text></g><g class="ytick"><text text-anchor="end" x="72.8" y="5.6" style="font-family: 'FK Grotesk Neue'; font-size: 16px; fill: rgb(98, 108, 113); fill-opacity: 1; white-space: pre; opacity: 1;" transform="translate(0,395.99)">0.5</text></g><g class="ytick"><text text-anchor="end" x="72.8" y="5.6" style="font-family: 'FK Grotesk Neue'; font-size: 16px; fill: rgb(98, 108, 113); fill-opacity: 1; white-space: pre; opacity: 1;" transform="translate(0,337.03999999999996)">1</text></g><g class="ytick"><text text-anchor="end" x="72.8" y="5.6" style="font-family: 'FK Grotesk Neue'; font-size: 16px; fill: rgb(98, 108, 113); fill-opacity: 1; white-space: pre; opacity: 1;" transform="translate(0,278.09000000000003)">1.5</text></g><g class="ytick"><text text-anchor="end" x="72.8" y="5.6" style="font-family: 'FK Grotesk Neue'; font-size: 16px; fill: rgb(98, 108, 113); fill-opacity: 1; white-space: pre; opacity: 1;" transform="translate(0,219.14)">2</text></g><g class="ytick"><text text-anchor="end" x="72.8" y="5.6" style="font-family: 'FK Grotesk Neue'; font-size: 16px; fill: rgb(98, 108, 113); fill-opacity: 1; white-space: pre; opacity: 1;" transform="translate(0,160.19)">2.5</text></g></g><g class="overaxes-above"/></g></g><g class="polarlayer"/><g class="smithlayer"/><g class="ternarylayer"/><g class="geolayer"/><g class="funnelarealayer"/><g class="pielayer"/><g class="iciclelayer"/><g class="treemaplayer"/><g class="sunburstlayer"/><g class="glimages"/><defs id="topdefs-9250d1"><g class="clips"/><clipPath id="legend9250d1"><rect width="401" height="35" x="0" y="0"/></clipPath></defs><g class="layer-above"><g class="imagelayer"/><g class="shapelayer"/></g><g class="infolayer"><g class="legend" pointer-events="all" transform="translate(400.5,84.39999999999998)"><rect class="bg" shape-rendering="crispEdges" width="401" height="35" x="0" y="0" style="stroke: rgb(68, 68, 68); stroke-opacity: 1; fill: rgb(243, 243, 238); fill-opacity: 1; stroke-width: 0px;"/><g class="scrollbox" transform="" clip-path="url(#legend9250d1)"><text class="legendtitletext" text-anchor="start" x="2" y="24.7" style="font-family: 'FK Grotesk Neue'; font-size: 19px; fill: rgb(19, 52, 59); fill-opacity: 1; white-space: pre;">Species</text><g class="groups" transform=""><g class="traces" transform="translate(80.578125,16.9)" style="opacity: 1;"><text class="legendtext" text-anchor="start" x="40" y="6.24" style="font-family: 'FK Grotesk Neue'; font-size: 16px; fill: rgb(19, 52, 59); fill-opacity: 1; white-space: pre;">setosa</text><g class="layers" style="opacity: 1;"><g class="legendfill"/><g class="legendlines"/><g class="legendsymbols"><g class="legendpoints"><path class="scatterpts" transform="translate(20,0)" d="M4,0A4,4 0 1,1 0,-4A4,4 0 0,1 4,0Z" style="opacity: 1; stroke-width: 0px; fill: rgb(31, 184, 205); fill-opacity: 1;"/></g></g></g><rect class="legendtoggle" x="0" y="-11.9" width="92.265625" height="23.8" style="fill: rgb(0, 0, 0); fill-opacity: 0;"/></g></g><g class="groups" transform="translate(94.765625,0)"><g class="traces" transform="translate(80.578125,16.9)" style="opacity: 1;"><text class="legendtext" text-anchor="start" x="40" y="6.24" style="font-family: 'FK Grotesk Neue'; font-size: 16px; fill: rgb(19, 52, 59); fill-opacity: 1; white-space: pre;">versicolor</text><g class="layers" style="opacity: 1;"><g class="legendfill"/><g class="legendlines"/><g class="legendsymbols"><g class="legendpoints"><path class="scatterpts" transform="translate(20,0)" d="M4,0A4,4 0 1,1 0,-4A4,4 0 0,1 4,0Z" style="opacity: 1; stroke-width: 0px; fill: rgb(219, 69, 69); fill-opacity: 1;"/></g></g></g><rect class="legendtoggle" x="0" y="-11.9" width="115.203125" height="23.8" style="fill: rgb(0, 0, 0); fill-opacity: 0;"/></g></g><g class="groups" transform="translate(212.46875,0)"><g class="traces" transform="translate(80.578125,16.9)" style="opacity: 1;"><text class="legendtext" text-anchor="start" x="40" y="6.24" style="font-family: 'FK Grotesk Neue'; font-size: 16px; fill: rgb(19, 52, 59); fill-opacity: 1; white-space: pre;">virginica</text><g class="layers" style="opacity: 1;"><g class="legendfill"/><g class="legendlines"/><g class="legendsymbols"><g class="legendpoints"><path class="scatterpts" transform="translate(20,0)" d="M4,0A4,4 0 1,1 0,-4A4,4 0 0,1 4,0Z" style="opacity: 1; stroke-width: 0px; fill: rgb(46, 139, 87); fill-opacity: 1;"/></g></g></g><rect class="legendtoggle" x="0" y="-11.9" width="105" height="23.8" style="fill: rgb(0, 0, 0); fill-opacity: 0;"/></g></g></g><rect class="scrollbar" rx="20" ry="3" width="0" height="0" x="0" y="0" style="fill: rgb(128, 139, 164); fill-opacity: 1;"/></g><g class="g-gtitle"><text class="gtitle" x="600" y="68" text-anchor="middle" dy="-0.3em" style="opacity: 1; font-family: 'FK Grotesk Neue'; font-size: 28px; fill: rgb(19, 52, 59); fill-opacity: 1; font-weight: 1000; white-space: pre;">PCA of Iris Dataset: 95.81% of Variance Explained</text></g><g class="g-xtitle"><text class="xtitle" x="601" y="787" text-anchor="middle" style="opacity: 1; font-family: 'FK Grotesk Neue'; font-size: 19px; fill: rgb(19, 52, 59); fill-opacity: 1; font-weight: 600; white-space: pre;">PC1</text></g><g class="g-ytitle"><text class="ytitle" transform="rotate(-90,19.06875,434)" x="19.06875" y="434" text-anchor="middle" style="opacity: 1; font-family: 'FK Grotesk Neue'; font-size: 19px; fill: rgb(19, 52, 59); fill-opacity: 1; font-weight: 600; white-space: pre;">PC2</text></g></g></svg>